<?xml version="1.0" standalone="no"?>
<!DOCTYPE svg PUBLIC "-//W3C//DTD SVG 20010904//EN"
 "http://www.w3.org/TR/2001/REC-SVG-20010904/DTD/svg10.dtd">
<svg version="1.0" xmlns="http://www.w3.org/2000/svg"
 width="700.000000pt" height="700.000000pt" viewBox="0 0 700.000000 700.000000"
 preserveAspectRatio="xMidYMid meet">
<metadata>
Created by potrace 1.11, written by Peter Selinger 2001-2013
</metadata>
<g transform="translate(0.000000,700.000000) scale(0.100000,-0.100000)"
fill="#000000" stroke="none">
<path d="M1885 5569 c-33 -4 -78 -10 -101 -12 -315 -39 -677 -190 -950 -396
-80 -60 -194 -161 -238 -209 -17 -19 -48 -51 -68 -73 -57 -60 -152 -188 -219
-296 -164 -262 -262 -550 -299 -878 -8 -76 -5 -382 4 -455 51 -374 181 -694
403 -992 40 -54 81 -106 90 -116 10 -10 36 -38 59 -63 155 -169 372 -330 594
-440 82 -40 126 -60 225 -99 79 -32 300 -85 390 -95 33 -4 68 -9 79 -12 31 -9
327 -11 409 -2 327 33 608 125 886 292 192 115 439 331 552 483 24 33 46 61
49 64 10 9 80 110 80 115 0 2 16 30 36 62 49 76 135 258 172 363 39 112 84
293 97 395 33 248 19 612 -28 702 -82 156 -315 148 -392 -14 -21 -44 -23 -88
-10 -188 12 -89 12 -336 0 -415 -34 -230 -110 -445 -223 -635 -91 -153 -269
-352 -411 -459 -182 -137 -403 -241 -618 -291 -70 -16 -84 -19 -193 -34 -66
-9 -380 -8 -396 2 -5 2 -31 8 -59 11 -69 10 -216 49 -300 81 -402 152 -733
458 -910 840 -64 137 -99 245 -131 410 -19 92 -27 400 -13 485 5 30 11 73 15
94 23 158 108 383 203 541 103 173 262 352 405 458 28 21 58 43 66 50 68 55
253 151 385 200 77 28 207 63 270 71 22 3 65 10 95 15 83 13 372 6 470 -12
127 -24 251 -62 385 -119 66 -28 134 -51 150 -51 123 -1 217 79 231 197 7 50
-25 140 -62 174 -25 24 -175 102 -195 102 -6 0 -23 7 -37 14 -83 46 -355 113
-532 133 -69 8 -356 9 -415 2z"/>
<path d="M4680 5564 c-625 -76 -1163 -418 -1519 -964 -102 -158 -214 -421
-257 -605 -23 -101 -24 -106 -30 -150 -3 -22 -7 -46 -9 -52 -17 -52 -23 -335
-11 -482 13 -160 29 -212 82 -265 44 -43 82 -58 149 -59 102 -1 181 58 209
156 13 45 13 48 1 147 -10 80 -11 313 -2 395 25 226 104 457 225 660 125 209
356 442 547 551 28 15 52 31 55 34 7 7 195 94 245 113 49 18 225 64 280 72
116 19 173 22 310 20 151 -2 239 -13 350 -41 33 -9 67 -17 75 -19 115 -26 387
-158 491 -240 15 -11 39 -29 55 -40 41 -29 151 -131 210 -195 367 -399 511
-983 373 -1510 -142 -540 -541 -967 -1069 -1144 -194 -65 -308 -81 -550 -80
-244 2 -402 36 -656 144 -59 26 -112 41 -142 42 -93 4 -187 -68 -212 -162 -21
-78 11 -175 72 -222 29 -22 160 -88 175 -88 3 0 19 -6 36 -14 66 -28 85 -34
192 -65 61 -17 153 -38 205 -46 52 -9 109 -19 125 -22 50 -8 345 -10 425 -2
251 25 469 84 684 186 237 113 407 232 592 417 180 181 310 363 414 582 27 59
50 108 50 110 0 1 5 15 12 31 6 15 12 30 13 33 0 3 11 34 22 70 25 74 60 208
69 265 3 20 8 47 10 59 19 95 25 411 11 548 -28 278 -143 606 -299 856 -288
462 -738 793 -1258 927 -71 19 -75 19 -140 30 -25 4 -52 9 -61 10 -118 22
-402 26 -549 9z"/>
</g>
</svg>
